Input #0, mov,mp4,m4a,3gp,3g2,mj2, from '/home/hbattu/projects/huberman-gpt/huberman-audio/mp3/tmpqv6fm7r6.mp4':
  Metadata:
    major_brand     : dash
    minor_version   : 0
    compatible_brands: iso6mp41
    creation_time   : 2023-01-04T16:07:17.000000Z
  Duration: 04:21:55.36, start: 0.000000, bitrate: 129 kb/s
    Stream #0:0(eng): Audio: aac (LC) (mp4a / 0x6134706D), 44100 Hz, stereo, fltp, 0 kb/s (default)
    Metadata:
      creation_time   : 2023-01-04T16:07:17.000000Z
      handler_name    : ISO Media file produced by Google Inc.
Stream mapping:
  Stream #0:0 -> #0:0 (aac (native) -> mp3 (libmp3lame))
Press [q] to stop, [?] for help
[graph_0_in_0_0 @ 0x5568a135b240] tb:1/44100 samplefmt:fltp samplerate:44100 chlayout:0x3
Output #0, mp3, to '../huberman-audio/mp3/-wIt_WsJGfw.mp3':
  Metadata:
    major_brand     : dash
    minor_version   : 0
    compatible_brands: iso6mp41
    TSSE            : Lavf58.29.100
    Stream #0:0(eng): Audio: mp3 (libmp3lame), 44100 Hz, stereo, fltp, delay 1105 (default)
    Metadata:
      creation_time   : 2023-01-04T16:07:17.000000Z
      handler_name    : ISO Media file produced by Google Inc.
      encoder         : Lavc58.54.100 libmp3lame
No more output streams to write to, finishing.
size=  245553kB time=04:21:55.37 bitrate= 128.0kbits/s speed=81.6x    
[AVIOContext @ 0x5568a130b900] Statistics: 0 seeks, 385 writeouts
video:0kB audio:245553kB subtitle:0kB other streams:0kB global headers:0kB muxing overhead: 0.000138%
Input file #0 (/home/hbattu/projects/huberman-gpt/huberman-audio/mp3/tmpqv6fm7r6.mp4):
  Input stream #0:0 (audio): 676804 packets read (251445730 bytes); 676804 frames decoded (693047296 samples); 
  Total: 676804 packets (251445730 bytes) demuxed
Output file #0 (../huberman-audio/mp3/-wIt_WsJGfw.mp3):
  Output stream #0:0 (audio): 601604 frames encoded (693047296 samples); 601605 packets muxed (251446334 bytes); 
  Total: 601605 packets (251446334 bytes) muxed
[AVIOContext @ 0x5568a1334740] Statistics: 2 seeks, 961 writeouts
[AVIOContext @ 0x5568a1314880] Statistics: 254336194 bytes read, 0 seeks
